<svg xmlns="http://www.w3.org/2000/svg" width="202" height="54" fill="none" viewBox="0 0 202 54"><path fill="#0E4D65" stroke="#0E4D65" stroke-miterlimit="10" stroke-width=".5" d="M175.523 18.992v10.235c0 1.842-.467 3.26-1.383 4.218-.951 1.053-2.444 1.596-4.439 1.596-1.858 0-3.293-.51-4.303-1.51-1.001-1.002-1.51-2.445-1.51-4.304V18.992h1.875v10.235c0 2.69 1.256 3.947 3.938 3.947 1.384 0 2.41-.314 3.021-.925.62-.62.926-1.63.926-3.022V18.992zM201 32.002v-.246a3.4 3.4 0 0 0-.178-.959l-4.829-11.839h-1.485l-4.269 11.687-.034.118.076.094c.323.458.772.815 1.282 1.044l.178.05.348-.806 3.165-8.792s3.166 6.866 3.87 9.285c.026.084.017.17.017.263 0 .195-.042.39-.118.568-.34.798-1.545 1.087-2.317 1.29l-.323.06-.153.034c-.39.076-.78.11-1.179.127a7.3 7.3 0 0 1-2.181-.28 7.1 7.1 0 0 1-1.681-.756 9 9 0 0 1-1.426-1.111 33 33 0 0 1-1.332-1.333 32 32 0 0 0-1.876-1.85 10 10 0 0 0-1.273-.95 4.3 4.3 0 0 0 1.426-1.138 4.54 4.54 0 0 0 1.019-2.987c0-.611-.128-1.222-.374-1.782a4.5 4.5 0 0 0-.984-1.468 4.7 4.7 0 0 0-1.468-.993 4.6 4.6 0 0 0-1.817-.365H177.5v16.048h1.842v-6.823h1.027c.746 0 1.485.11 2.198.314a8 8 0 0 1 1.714.79c.518.322.993.695 1.434 1.111.459.441.908.9 1.35 1.366.466.484.95.96 1.442 1.426.527.492 1.087.934 1.698 1.324a8.5 8.5 0 0 0 2.13.96 9.9 9.9 0 0 0 2.724.356 9 9 0 0 0 2.317-.331c1.375-.39 2.75-.917 3.344-2.334a2.9 2.9 0 0 0 .28-1.172Zm-21.616-11.177h3.717c.73 0 1.435.289 1.961.807.246.246.45.543.585.865a2.9 2.9 0 0 1-.534 3.073 2.73 2.73 0 0 1-2.012.755h-3.717zM156.954 18.992h-1.197l-.203.433-6.501 15.616h2.011l1.664-3.997h7.281l1.698 3.997h2.028zm-3.471 10.184 2.877-6.865 2.86 6.865zM63.377 20.876v3.963h6.688v1.867h-6.688v8.334H61.52V19.01h9.513v1.867zM140.345 27.98a4.3 4.3 0 0 0 2.037-1.35 4.52 4.52 0 0 0 1.053-3.046c0-.612-.128-1.223-.365-1.783a4.9 4.9 0 0 0-.985-1.468 4.8 4.8 0 0 0-1.468-.984 4.6 4.6 0 0 0-1.816-.365h-5.839V35.04h1.85v-6.824h3.539l3.556 6.824h2.105zm-5.491-7.13h3.964c.373 0 .738.077 1.078.221.331.145.628.34.882.586.246.255.45.552.586.874.144.331.221.696.221 1.053a2.603 2.603 0 0 1-2.759 2.758h-3.963zM123.396 20.85v3.973h6.688v1.858h-6.688v6.484h7.655v1.867h-9.53V18.984h9.53v1.867zM96.528 26.596a8.3 8.3 0 0 1-.653 3.293 8.4 8.4 0 0 1-4.498 4.49 8.3 8.3 0 0 1-3.285.653H73.164V19.001h1.867v14.164h13.053a6.3 6.3 0 0 0 2.546-.518 6.8 6.8 0 0 0 2.096-1.417 6.8 6.8 0 0 0 1.418-2.096 6.52 6.52 0 0 0 0-5.084 6.8 6.8 0 0 0-1.418-2.096 6.6 6.6 0 0 0-2.096-1.409 6.45 6.45 0 0 0-5.084 0 6.63 6.63 0 0 0-3.505 3.514 6.52 6.52 0 0 0 1.418 7.18q.14.152.305.28l.518.45h-1.986c-.594 0-.95-.332-1.316-.807-.415-.551-.398-.636-.67-1.273a8.2 8.2 0 0 1-.662-3.284c0-2.24.883-4.396 2.461-5.983a8.5 8.5 0 0 1 9.268-1.8 8.34 8.34 0 0 1 4.498 4.498 8.2 8.2 0 0 1 .653 3.276ZM119.722 19.128l-5.755 15.913h-1.68l-.051-.128-4.294-12.034-4.337 12.162-.144.008h-1.545l-5.041-14.054-.713-1.859h1.994c1.672 4.142 3.09 8.52 4.6 12.739l4.295-12.077c.017-.034.034-.06.042-.085l.212-.577h1.265l.22.586a.2.2 0 0 1 .034.068l4.303 12.085c1.502-4.21 2.92-8.606 4.6-12.739h1.995z"/><path fill="#0E4D65" fill-rule="evenodd" stroke="#0E4D65" stroke-miterlimit="10" stroke-width=".5" d="M26.587 35.04H27.7a13.4 13.4 0 0 1 1.774 4.626c.187.95.178 1.604.161 4.532v8.953l4.795-5.864 3.615 1.672c.255-4.328.213-8.818-2.851-12.289l-8.606-8.614-8.605 8.614c-3.064 3.463-3.106 7.952-2.852 12.289l3.615-1.672 4.796 5.864v-8.953c-.017-2.937-.017-3.582.16-4.532a13.3 13.3 0 0 1 1.775-4.625zm4.617 4.337c-.441-2.206-1.273-4.065-2.597-5.89l.289-.653 4.303 4.328a9.7 9.7 0 0 1 1.578 1.91c1.163 2.274 1.765 5.083 1.765 7.638l-2.452-1.112-2.631 2.996c-.009-2.835.314-6.577-.255-9.217Zm-5.966-7.748 1.358-1.087 1.358 1.087-.764 1.79h-1.188zm-5.245 5.542 4.303-4.328.288.653c-1.323 1.825-2.155 3.683-2.596 5.89-.578 2.64-.247 6.382-.247 9.225l-2.63-2.996-2.453 1.112c0-2.555.61-5.372 1.765-7.638a8.8 8.8 0 0 1 1.57-1.918Z" clip-rule="evenodd"/><path fill="#0E4D65" stroke="#0E4D65" stroke-miterlimit="10" stroke-width=".5" d="M17.184 18.678a11.1 11.1 0 0 0-9.692-3.106q-.534.09-1.069.229c-.399.102-.78.229-1.163.382-1.807.704-2.92 1.612-4.26 2.936l7.46 7.46L1 34.04c1.34 1.34 2.427 2.24 4.26 2.953a10.84 10.84 0 0 0 2.232.611c.603.102 1.214.145 1.834.145 2.91.008 5.839-1.154 7.858-3.268l7.91-7.91zm-1.493 1.494 2.86 2.86a11 11 0 0 0-1.765-.136c-2.428 0-4.796.79-6.73 2.257l-5.95-5.949a8.9 8.9 0 0 1 3.37-1.468c3.046-.645 6 .297 8.215 2.436Zm-.196 13.018a9.07 9.07 0 0 1-8.936 1.995 8.8 8.8 0 0 1-2.453-1.222l6.297-6.29c.213-.211.433-.415.67-.61l.026-.026a8.9 8.9 0 0 1 5.686-2.02c.62 0 1.248.068 1.86.196 1.077.229 2.596.755 3.47 1.375zM34.498 17.184a11.1 11.1 0 0 0 3.106-9.692q-.09-.534-.23-1.069a9 9 0 0 0-.381-1.163C36.288 3.453 35.38 2.34 34.056 1l-7.46 7.46L19.136 1c-1.34 1.34-2.24 2.427-2.953 4.26-.144.382-.271.764-.382 1.163q-.14.521-.229 1.07a11 11 0 0 0-.144 1.833c-.009 2.91 1.154 5.839 3.267 7.858l7.91 7.91zm-1.494-1.493-2.86 2.86a11 11 0 0 0 .136-1.765c0-2.428-.79-4.796-2.258-6.73l5.95-5.95a8.9 8.9 0 0 1 1.468 3.37c.645 3.038-.289 5.991-2.436 8.215Zm-13.019-.204a9.07 9.07 0 0 1-1.994-8.937 8.9 8.9 0 0 1 1.222-2.452l6.289 6.297q.319.316.61.67l.026.026a8.9 8.9 0 0 1 2.02 5.686c0 .62-.068 1.247-.195 1.859-.23 1.077-.756 2.597-1.375 3.47zM35.983 34.498a11.1 11.1 0 0 0 9.692 3.106q.534-.09 1.07-.23a9 9 0 0 0 1.162-.381c1.808-.705 2.92-1.613 4.26-2.937l-7.46-7.46 7.46-7.46c-1.34-1.34-2.427-2.24-4.26-2.953a13 13 0 0 0-1.163-.382q-.521-.14-1.07-.229a11 11 0 0 0-1.832-.144c-2.911-.009-5.84 1.154-7.859 3.267l-7.91 7.91zm1.494-1.494-2.86-2.86a11 11 0 0 0 1.765.136c2.427 0 4.795-.79 6.73-2.258l5.95 5.95a8.9 8.9 0 0 1-3.37 1.468c-3.038.645-5.992-.297-8.215-2.436Zm.203-13.027a9.07 9.07 0 0 1 8.937-1.995c.874.28 1.706.688 2.453 1.222l-6.298 6.29a9 9 0 0 1-.67.61l-.025.026a8.9 8.9 0 0 1-5.687 2.02c-.62 0-1.247-.068-1.858-.196-1.078-.229-2.597-.755-3.471-1.375z"/></svg>