<svg width="51" height="50" viewBox="0 0 51 50" fill="none" xmlns="http://www.w3.org/2000/svg">
<rect x="0.5" width="50" height="50" rx="25" fill="#0072B1"/>
<g clip-path="url(#clip0_1661_15639)">
<path d="M19.65 17.9168C19.65 19.0677 18.725 20.0002 17.5833 20.0002C16.4417 20.0002 15.5167 19.0677 15.5167 17.9168C15.5167 16.7668 16.4417 15.8335 17.5833 15.8335C18.725 15.8335 19.65 16.7668 19.65 17.9168ZM19.6667 21.6668H15.5V35.0002H19.6667V21.6668ZM26.3183 21.6668H22.1783V35.0002H26.3192V28.001C26.3192 24.1093 31.3433 23.791 31.3433 28.001V35.0002H35.5V26.5577C35.5 19.991 28.065 20.2302 26.3183 23.4627V21.6668Z" fill="white"/>
</g>
<defs>
<clipPath id="clip0_1661_15639">
<rect width="20" height="20" fill="white" transform="translate(15.5 15)"/>
</clipPath>
</defs>
</svg>
